<svg id="Layer_1" height="60" fill="#333333" data-name="Layer 1" xmlns="http://www.w3.org/2000/svg" viewBox="0 0 337.45 69.26"><defs></defs><title>aak-logo-long</title><path class="cls-1" d="M16.91,44.34l-.06-.11-.09-.09a1,1,0,0,0-.35.26c-.2.29.2.92.2.92a.78.78,0,0,1-.55-.59,3.13,3.13,0,0,1,.24-.84c.08-.23.16-.56.24-.91s.16-.68.27-1.09c.23-.79.56-1.69.75-2.49a12,12,0,0,0,.29-1.45c.09-.86.19-2.47.25-3.53a2.76,2.76,0,0,0,0-.47,3.52,3.52,0,0,1,.76-2.17c.45-.39.87-.33,1.39-.57a3,3,0,0,0-1.65-.1S17,32.35,16.29,37.86c0,0-.92,5.13-.95,5.66a15.05,15.05,0,0,0,.24,1.57,4.1,4.1,0,0,0,1,.31c.1,0,.24,0,.48-.11a1.09,1.09,0,0,1,.78,0c-1-.43-.77-.76-.9-1" transform="translate(-1.1 -0.85)"/><path class="cls-1" d="M23.6,25.92l.95,0c.28,0,.45-.07.44-.26s-.41-.23-.41-.23l-.69.11s-.08.29-.28.35" transform="translate(-1.1 -0.85)"/><path class="cls-1" d="M32.56,30.92c0-.08-.14-1.24-.14-2.13,0-.46,0-.84,0-1s-.28-.15-.33,0-.19.19-.19.19-.08,0-.1.22c0-.17-.05-.16-.11-.21s-.3.46-.3.46,0,.13,0,.46c0,.07,0,.15,0,.24a3.69,3.69,0,0,0,.23,1.39.17.17,0,0,0,.14.11,1.26,1.26,0,0,0,.08.68c.27.42.41.32.41.32.48-.4.35-.55.34-.71" transform="translate(-1.1 -0.85)"/><path class="cls-1" d="M22,29.42a.56.56,0,0,1,.4-.16.56.56,0,0,1,.55.58.55.55,0,0,1-.23.43l-.11,0a2.9,2.9,0,0,0-.6,0l0,0a.57.57,0,0,1,0-.8m-.7.41a1.08,1.08,0,0,0,.23.65,7.5,7.5,0,0,0-.57.6.7.7,0,0,1-.32.2s-.23,1.39.29,1.2c0,0,.08-.33.36-.27a.74.74,0,0,0,.78-.22c.13-.09.5,0,.5,0,.29-.06.64.08.7-.19a.32.32,0,0,0,0-.07c-.23-.19-.9-.1-.9-.1a1.15,1.15,0,0,1,.25-.06s.14,0,.15-.08a2.07,2.07,0,0,1,.36.09c.25.08.26,0,.28-.09a.26.26,0,0,0-.08-.16,3.42,3.42,0,0,0-.48-.16,3.31,3.31,0,0,0-.57,0,1,1,0,0,1,.26-.07c.09,0,.18,0,.17-.1a1.33,1.33,0,0,1,.41.13c.16.08.24.08.29.05s.05-.06.06-.08v-.05a.26.26,0,0,0-.15-.19,5.56,5.56,0,0,0-.64-.19,2.76,2.76,0,0,0-.57.09.87.87,0,0,1,.38-.11c.2,0,.17-.15.17-.15s0,.06.44.18c.11,0,.39.18.31-.08a.72.72,0,0,0-.12-.14,1.13,1.13,0,0,0,.21-.63,1.11,1.11,0,0,0-1.08-1.13,1.23,1.23,0,0,0-.22,0h0c-.29.4-.64.78-.89,1.07" transform="translate(-1.1 -0.85)"/><path class="cls-1" d="M22.06,44.54c-.54-.4-2,.28-2,.28s-.26.61.27.6a6.1,6.1,0,0,0,1.18-.06,7.37,7.37,0,0,1,1.21.06c.62-.17-.68-.88-.68-.88" transform="translate(-1.1 -0.85)"/><path class="cls-1" d="M13.59,41.38c-.12.69-.38,1.89-.42,2.32s-.05,1.2-.05,1.2c.16.1.37.17.44.21l.81-6.58s-.66,2.16-.78,2.85" transform="translate(-1.1 -0.85)"/><path class="cls-1" d="M23.91,25.48h.66c.47,0,.62-.17.44-.36s-.77-.09-.77-.09l-.45.16s.22,0,.11.31" transform="translate(-1.1 -0.85)"/><path class="cls-1" d="M48.16,42.79H46.22V37.72s0,0,0-.07a1,1,0,0,1,1.93,0s0,0,0,.07ZM44.8,36.1a1.46,1.46,0,1,1,1.46-1.46A1.46,1.46,0,0,1,44.8,36.1m-1.43,6.69H41.44V37.72s0,0,0-.07a1,1,0,0,1,1.93,0s0,0,0,.07Zm.46-22.08h0a1,1,0,0,1,.28-.62,1,1,0,0,1,1.65.62v.15h0v5.32H43.84ZM10.05,42.79H8.12V37.72s0,0,0-.07a1,1,0,0,1,1.93,0s0,0,0,.07ZM6.69,36.1a1.46,1.46,0,1,1,1.46-1.46A1.46,1.46,0,0,1,6.69,36.1M5.27,42.79H3.34V37.72a.44.44,0,0,1,0-.07,1,1,0,0,1,1.93,0s0,0,0,.07Zm.45-21.93h0v-.15a1,1,0,0,1,1-.9,1,1,0,0,1,1,.9h0v5.47H5.72ZM48.86,31.59l-.24-13.86h1L45.38,9.39a1.29,1.29,0,1,0-1.16,0L40,17.73h1l-.07,4.06-.25-1a7.58,7.58,0,0,0-7.33-5.68h-.19a7.6,7.6,0,0,0-5.36-5.72V6.69h.4l-2-3.94a1,1,0,1,0-.91,0l-2,3.94h.41V9.42a7.6,7.6,0,0,0-5.36,5.72h-.19a7.58,7.58,0,0,0-7.33,5.68l-.26,1-.07-4.06h1L7.27,9.39a1.29,1.29,0,1,0-1.16,0L1.9,17.73h1L2.64,31.59H1.35L1.1,45.45H12.28L12,31.59V25.28a15.1,15.1,0,0,1,.54-3.51c.1-.33.2-.65.3-1a5.61,5.61,0,0,1,5.28-3.71,5.68,5.68,0,0,1,2,.38,6,6,0,0,1-.05-.77,5.6,5.6,0,1,1,11.19,0,5.53,5.53,0,0,1-.05.77,5.68,5.68,0,0,1,2-.38,5.61,5.61,0,0,1,5.28,3.71c.11.31.21.63.3,1a15,15,0,0,1,.54,3.51v6.31l-.24,13.86H50.4l-.26-13.86Z" transform="translate(-1.1 -0.85)"/><path class="cls-1" d="M27.74,28.1a.81.81,0,0,0,.34-.06,1.39,1.39,0,0,0,.61-.6.53.53,0,0,0-.27-.55.32.32,0,0,0-.27,0,3.27,3.27,0,0,0-.33.15c.07-.07,0-.22,0-.22.17.12.88-.2.74-1a2,2,0,0,1-.05-.3,1.62,1.62,0,0,0,0-.35c0-.15.05-.42,0-.55s-.22-.1-.3-.07c-.29.13-.3.59-.33.73l-.09,0c-.06,0-.07-.07-.14-.14a3,3,0,0,1-.23-.28c-.06-.08-.46-.52-.65-.69s-.29,0-.3.1.33.62.33.62c.28.38.36.41.36.41l-.08.06s0,0-.36-.47c0,0-.41-.56-.55-.71a.21.21,0,0,0-.33.06c-.09.19.5.9.5.9a1.92,1.92,0,0,0,.46.5l-.09.08c.05,0-.46-.58-.46-.58-.21-.21-.37-.48-.53-.6s-.27.19-.17.34.11.19.26.39.62.64.62.64l0,0a4.75,4.75,0,0,0-.76-.71c-.26-.18-.33.05-.27.18a4.85,4.85,0,0,0,.41.54c.07.08.58.45.62.5l.23.33a3,3,0,0,0,.36.43s.22.15.36.08a.63.63,0,0,0,.34.85" transform="translate(-1.1 -0.85)"/><path class="cls-1" d="M34.62,35.69a1.46,1.46,0,0,1-1.51-.11,10.22,10.22,0,0,1-1.3-.83,3,3,0,0,0,1.47.29,5.33,5.33,0,0,1,1.36-.24s-.89.27-.84.75c0,.18.4.23.81.14m-6.28-2.26a.66.66,0,0,0,.32,0l.52-.17c.17-.05.16,0,.21-.15a.49.49,0,0,0,.48.44c.33,0,.51-.21.76-.2l.32,0c0,.1.05.17.05.17.26.21.43-.07.32-.28a.61.61,0,0,0,.37.17,4.84,4.84,0,0,0,1.24-.26c.34-.12,1-.37,1.08-.58s-.26-.74-.39-1.08c-.05-.14-.07-.16-.15-.36.06.15.2.46.38.8l.08.17c.13.24.26.49.39.7a3.46,3.46,0,0,0,.37.56,4.32,4.32,0,0,1,.73.79,13,13,0,0,1-.73-2.29,12.23,12.23,0,0,0-.82-1.71,6.1,6.1,0,0,1-.39-1.33,3.92,3.92,0,0,1,0-.79s.57,1.71.63,2,.65,2.1.77,2.36.9,2.4,1.1,2.63a4,4,0,0,1,.41.45,7.74,7.74,0,0,1,.66.91,1.23,1.23,0,0,0-.53-.4.49.49,0,0,1-.25-.41A1.35,1.35,0,0,0,36,35a1.51,1.51,0,0,1-.31-.36c-.09-.14-.18-.31-.27-.47a5.49,5.49,0,0,0-.9-.66c-.39-.19-.58-.29-.86-.17a4.92,4.92,0,0,1-1.84.41c-.78-.12-.3.24-.3.24a4.07,4.07,0,0,0,1.41.29,8.86,8.86,0,0,1,1.6.16,1.54,1.54,0,0,1,.79.39,2.81,2.81,0,0,0-1.62-.11A3,3,0,0,1,31.53,34c-.7-.32-.62.11-.52.22a1.42,1.42,0,0,0,.27.24c-.49-.17-.26.15-.26.15a3.1,3.1,0,0,1,.55.36c1.32,1.22,2.27,1.42,2.84,1.33a1.17,1.17,0,0,1,.33-.06,1.08,1.08,0,0,0-.36.22,3.6,3.6,0,0,1-1.48.43,2.6,2.6,0,0,1-1.59-.24c-.15-.12-.19-.53.11-.62s.5-.25.52-.49-.37-.56-.37-.56c-.61-.34-.84-.12-.84-.12l.21-1.18h-.78a1.41,1.41,0,0,1-.34,0l-.06,0h-.45l0-.17h0l-.17-.09a.81.81,0,0,0-.22,0l-.34.11Zm4.79-3.8c.05.23.12.69.21,1.08a6.09,6.09,0,0,1-.46.42c.44-.37.3-1.26.25-1.5M33,26.9a1.67,1.67,0,0,0,1,0c-.05.22-.52.21-.52.21a1.28,1.28,0,0,1,.36.39c.2.32-.27.14-.27.14,0-.43-.57-.74-.57-.74M37,39.1a3.2,3.2,0,0,0-.42-1.54,2.68,2.68,0,0,1,.67,1.72c0,1.12-.07,4-.15,4.79,0,0-.49.62-.83-.44,0,0,.34.21.47-.62A19.49,19.49,0,0,0,37,39.1m-2.39,4.3c.06-.23.08-3.08.08-3.08.09,1.07.46,3.53.46,3.53-.43,0-.59-.23-.53-.46m-.52-5.08c0-.2,0-.33-.09-.35a1.66,1.66,0,0,0-.47.76c-.16.49-.3.87-.78,2.1-.79,2-1.38,2.39-1.38,2.39a1.59,1.59,0,0,0-.19-1c.71-.76,2.85-4.69,3.17-5.06s.39-.22.39-.22a2.21,2.21,0,0,0-.64,1.39m-2.74.8c-.14-.6-.86-1.94-.41-2,.19,0,1.26.93,1.76.93a.69.69,0,0,0,.72-.39c.37-.67.56-.76.56-.76a3.9,3.9,0,0,0-.46.76c-.17.35-.38.73-.58,1.15a21.05,21.05,0,0,1-1.83,2.88,6.41,6.41,0,0,0,.23-2.6m-4.52,4c-.06.31-.12.66-.14.81a3,3,0,0,0,.05,1.89,3,3,0,0,0,.7-1.76c.12-.71.58-3.27,1-5.6-.12-1.11-.19-2.15.09-2.4s.49-.41.4-.33c.16-.88.26-1.47.26-1.47l1.28.48a5.41,5.41,0,0,0-1.26.77,4.7,4.7,0,0,0-.37,3.26,4.25,4.25,0,0,1-.19,1.53A14.07,14.07,0,0,0,29,42.62s.31.77.86,1c0,0-.59-.09-.69-.28a1,1,0,0,0-.21.3s-.56.38-.36.73a1.92,1.92,0,0,1-.46.39,3.11,3.11,0,0,1-.71.37.92.92,0,0,0-.38.27c0,.08,0,.09.06.06a.61.61,0,0,1,.21-.16c-.18.1-.17.2-.11.25h0s.1,0,.17-.13a.38.38,0,0,1,.25-.17s-.32.14-.2.32.27-.16.31-.19a.75.75,0,0,1,.42-.17c-.4.12-.44.19-.33.37a.57.57,0,0,0,.55,0c.36,0,.89-.29,1.23-.31.13,0,.13,0,.34.07s.47,0,.54-.08c.22-.42-.52-.9-.65-1s-.45-.29-.45-.29a5.59,5.59,0,0,0,.78.36,2.23,2.23,0,0,0,.49.14c.5.06.75-.18,1.22-.22a4.62,4.62,0,0,0,1.69-3.1,17.88,17.88,0,0,0,.46-2.31,14.38,14.38,0,0,0,0,1.61c0,.59.09,2.55,0,2.88s-.22.4-.22.4a1.34,1.34,0,0,0,.93.82,1.12,1.12,0,0,0,.52-.07,1.78,1.78,0,0,0,1.57.17,2.71,2.71,0,0,0,.47-.22c.11-.06.12-5.1.07-5.77a1.42,1.42,0,0,0-.21-.79,2.51,2.51,0,0,0-.49-.66.45.45,0,0,1-.16-.44c0-.51.11-.46.28-.25a2.61,2.61,0,0,1,.37,1.35,6.52,6.52,0,0,1,.37.58,2.62,2.62,0,0,1,.09.93s0,4.49,0,4.93a1.35,1.35,0,0,1,.2-.33s0-5.54-.14-6.71c0-.3-.18-.44-.22-.7a2.67,2.67,0,0,0-.34-1.31,1.87,1.87,0,0,1,.45.72,8.14,8.14,0,0,1,.38,1.61c.07.41.23,1.05.23,1.05A6,6,0,0,0,38,36a6.47,6.47,0,0,0-.51-1.1c-.21-.34-.41-.6-.47-.68-.79-1.28-.89-1.68-1.69-3.23a5.08,5.08,0,0,1-.6-2.84,1.93,1.93,0,0,0,.35.72,1.19,1.19,0,0,1,.17.9,2.9,2.9,0,0,0,.43,1.42A14,14,0,0,0,37,33.32c.27.34.42.29.42.29-.15-1.19-1.16-5-1.16-5a1.47,1.47,0,0,1,.55.91c.06.23.17,1,.37,1.77.27,1.09,1.08,4,1.13,4.06-.29-1.92-.21-1.92-.39-2.69-.11-.47-.07-1.13-.16-1.77-.14-1-.18-1.33-.19-1.52-.11-1.92-.71-2-.71-2,.27-.73-.08-.91-.08-.91a1,1,0,0,0-.62-.17c-.25.16-.19-.21-.44-.08s-.55.21-.55.21c.74-.57.43-.74.43-.74a1.9,1.9,0,0,1-1.62.83,3.79,3.79,0,0,1-.72,0c-.12,0-.18.09-.23.21a.21.21,0,0,0-.06-.06c.06-.08.1-.16,0-.27a.43.43,0,0,1-.12-.13.57.57,0,0,1,0-.45c.09-.14.21-.25.21-.45a.89.89,0,0,0-.61.19c-.11.12-.19.22-.34.36a1.11,1.11,0,0,0-.27.54c-.06.24.24.36.24.36s-.61-.08-.25-.59c-.06.06-.29.15-.44.25s-.23.41-.31.56a5.5,5.5,0,0,1-.33.58,2.06,2.06,0,0,0-.34.83,1.13,1.13,0,0,1,.38-.26.75.75,0,0,1,.38,0c.14,0,.14,0,.39-.18s.31-.5.61-.7.44-.22.61-.31a.16.16,0,0,0,.11.13.15.15,0,0,0,.13,0c0,.21-.06.57-.06.92a3.87,3.87,0,0,0,0,.5,6.17,6.17,0,0,0,.26,1.15,3.67,3.67,0,0,1-.43-1,11.6,11.6,0,0,0,.19,2.52l-.3.24-.07,0-.24.18-.06,0c-.16.1-.51.3-.58.33a.84.84,0,0,1-.33,0c-.15,0-.22.09-.32.19s-.4.07-.5,0l-.5-.34-.2-.15c.18-.05.33-.15.36-.3a.38.38,0,0,0-.08-.26h0l-.63-.35c.46-.05.55.05.75-.13s.58-.51.87-.75.22-.7.28-1c0-1.09-1-.52-1-.52l-.09.28c0,.05-.18.09-.21.07a.79.79,0,0,1,.34,1.15s.34-.62-.31-.81A1.82,1.82,0,0,1,28.94,28c-.25-.33-.46.07-.67.13a.84.84,0,0,1-.52,0,.53.53,0,0,1-.39-.3.69.69,0,0,1-.06-.32.42.42,0,0,0,0,.53,4.75,4.75,0,0,1,.39,1,4.8,4.8,0,0,0,1.09,1.76l.1.1a.39.39,0,0,0-.21.25.48.48,0,0,0,.28.46v0a4.38,4.38,0,0,0-.46.23c-.16.11-.26.2-.28.29s.09.15.27,0L28.9,32a.3.3,0,0,1,.19,0s-.72.32-.84.39a.33.33,0,0,0-.21.31.12.12,0,0,0,.17.08l.56-.21c.17-.06.14,0,.21,0l-.84.37a.23.23,0,0,0-.09.19.12.12,0,0,0,.17.11l.52-.23a.21.21,0,0,1,.19,0s-.67.3-.69.32a.09.09,0,0,0,0,.08L27,33l-.21,1.18,1.63,0s-.65,3.68-1.15,6.55a2.72,2.72,0,0,1-.43,2.45" transform="translate(-1.1 -0.85)"/><path class="cls-1" d="M20.87,32.76l0,0,0,0" transform="translate(-1.1 -0.85)"/><path class="cls-1" d="M18.87,28.89s.07.89.39,1.05.58.61,1.07.37c0,0,1.79-1.68,1.79-2.38a.87.87,0,0,1-.34-.44c.15.31.45.48.64.31.44-.39.44-.46.44-.46a.58.58,0,0,0,.56-.35.3.3,0,0,0-.11-.21c.29.2.41-.2.41-.2a.42.42,0,0,0,.18-.18l0-.05a1.53,1.53,0,0,0,.83-.17s0-.07,0-.1-.16-.1-.16-.1-1.08.07-1.15.08c-.24.06-.12.27-.13.41a.35.35,0,0,1-.07.23.34.34,0,0,0,0-.36c-.06-.14-.17-.09-.13-.18s.12-.19.37-.23.43-.38.45-.64c0-.07,0-.1-.06-.12s-.37.1-.46.16a2.8,2.8,0,0,1-.46.14,1.23,1.23,0,0,0,.31-.12,2.49,2.49,0,0,1,.55-.27c.09,0,.41-.07.51-.07.54-.18.28-.4.16-.41s-.63.11-.71.11a12.27,12.27,0,0,0-1.18.51,3.31,3.31,0,0,0-.46.9c0,.13-.19.54-.19.54-.27-.06-.41.2-.51.33s-.65.82-.74.92a9.79,9.79,0,0,1-.82.55.69.69,0,0,0-.08.56.58.58,0,0,1-.11-.48.6.6,0,0,0,0-.34l-.14-.2-.11-.13s-.59-.38-.49,1" transform="translate(-1.1 -0.85)"/><path class="cls-1" d="M22.33,32c0,.2,0,.43.06.68-.62.08-1.22.19-1.7.28a3.63,3.63,0,0,1-1,.56h0c0,.16.08.28.14.28s1.31,0,2.67-.13c.06.65.13,1.38.19,2.13h0a5.59,5.59,0,0,1,.13,1.48h0a7.17,7.17,0,0,0-4.09-2.73c-.29,0-.47,0-.52.45a10.16,10.16,0,0,0,0,1.1c0,.3.17.81.37.88a1,1,0,0,0,.43,0,2.1,2.1,0,0,0-.35.2,1.49,1.49,0,0,0-.45.39c-.1.17.37,0,.37,0s.25.09.25.09,0,.34.77-.06a6.52,6.52,0,0,1,1-.53,2,2,0,0,0-.44.3c-.25.2-.42.37-.66.56a5.83,5.83,0,0,1-1.5.62c.1.11.33,0,.33,0,0,1.32,2,.22,2,.22-1.63,1.33-2.28,0-2.68.55,1.89,1.28,3.95-1,4.36-1.42a1.29,1.29,0,0,1,1.08-.4s0,.5-.06,1.13v0c.17,1.91.31,3.49.33,3.71.06.62.06.85-.16,1a.67.67,0,0,1-.81-.08,2.82,2.82,0,0,1-.51-.46h0a3.83,3.83,0,0,1-.47-.69.82.82,0,0,0,.61.16h0a.42.42,0,0,0,.13-.06l.09-.07-.1-.06-.05,0h0a2.88,2.88,0,0,1-1.16-2.11,1.48,1.48,0,0,0,.69,1.13c.91-1.15,1.25-2,.77-2.54-.21-.25-1,.19-1.48.52s-.7.51-1.26,1-1.54,1.44-1.54,1.44,1.13-1.49.53-1.42c-.38.18-.59.76-.91,1.33s-.25.64-.74.88c0,1.06,2-.13,2.71-.85a2.24,2.24,0,0,0,.69-.94l0,.1a2.85,2.85,0,0,0-.15.68,2.51,2.51,0,0,1-.4.33l-.09.07a14.44,14.44,0,0,1-2.57,1.61c-.47.2,0,1,0,1-.09.54.68,1.08.68,1.08a.9.9,0,0,0,.71-.09,2.2,2.2,0,0,0,1.55-.42,11.42,11.42,0,0,0,1.38-.95,1.32,1.32,0,0,0-.53-.33,1.23,1.23,0,0,0-.58,0,5.2,5.2,0,0,0-1.74.83s.81-.73,1.54-1.51c.21-.23,0-.73,0-1.22A2.83,2.83,0,0,0,20.61,43l.18.25,0-.3a2.89,2.89,0,0,1,0-.76,5.44,5.44,0,0,0,.72,1.5h0a2.66,2.66,0,0,0,.58.58c.44.34,1.11.8,1.58,1.11h0l.52.34.05,0,0,0s1.15-1.18,1.72-1.88a3.79,3.79,0,0,0,.8-2.33,3,3,0,0,1,.19.74v.3l.12-.28a2.82,2.82,0,0,0,.14-1.4,2.92,2.92,0,0,0-1-1.78L26.08,39l0,.23a3,3,0,0,1-.69,2.51l-.08.08.1,0a.7.7,0,0,0,.75-.26,3.36,3.36,0,0,1-.69,1.34.67.67,0,0,1-.77.26c-.24-.06-.29-.28-.37-.9-.05-.41-.75-5.42-1.21-8.67,1.38-.18,2.7-.49,2.7-.49s.1-.15.08-.32-.09-.31-.15-.3-1.37,0-2.76.14L23,32h.14c-.14,0-.34,0-.51,0a.63.63,0,0,0-.26.05" transform="translate(-1.1 -0.85)"/><path class="cls-1" d="M14.25,43.94a6.52,6.52,0,0,0,.05-1.35A2.8,2.8,0,0,1,13.86,44a5.53,5.53,0,0,0-.3,1.11s.1.23.47.14a2.74,2.74,0,0,1,.22-1.31" transform="translate(-1.1 -0.85)"/><path class="cls-1" d="M20.26,31.21s-.82.34-1.1.51a1.58,1.58,0,0,0-.71,1c0,.33-.07.66.73.38,1.45-.51,1.43-.61,1.43-.61-.22-.16,0-1.23,0-1.23s-.39-.07-.39-.07" transform="translate(-1.1 -0.85)"/><polygon class="cls-1" points="29.79 7.74 33.57 7.74 33.58 7.74 32.73 11.42 32.73 11.44 32.73 11.43 32.73 11.44 32.74 11.42 35.08 8.47 35.09 8.47 37.45 11.43 36.59 7.74 36.59 7.74 40.38 7.74 36.96 6.11 39.33 3.15 35.92 4.8 35.09 1.1 34.26 4.79 30.85 3.14 30.84 3.14 33.21 6.1 33.21 6.11 29.79 7.74"/><path class="cls-1" d="M34.72,58.57a15,15,0,0,1-18,0,14.65,14.65,0,0,1-9,3l-.73,0A24.18,24.18,0,0,0,9.85,64.3a14.21,14.21,0,0,0,6.92-2.87,15,15,0,0,0,18,0,14.25,14.25,0,0,0,6.92,2.87,24.38,24.38,0,0,0,2.78-2.76l-.72,0a14.67,14.67,0,0,1-9-3" transform="translate(-1.1 -0.85)"/><path class="cls-1" d="M44.43,61.54v0l0,0Z" transform="translate(-1.1 -0.85)"/><path class="cls-1" d="M18.73,22.52c-.12,0-.18-.09-.34-.05a1,1,0,0,1-.44,0,1.35,1.35,0,0,0,.27-.1.71.71,0,0,1,.72,0s-.1.14-.22.12m-.09.27a.15.15,0,0,1-.18,0c-.1,0,0-.15-.25-.18a.38.38,0,0,1,.16-.07.45.45,0,0,1,.34,0s0,.18-.08.21m-.21-1.3a.75.75,0,0,1-.35.11,1.22,1.22,0,0,0-.36.46.57.57,0,0,1-.15.25.62.62,0,0,1-.17.13.37.37,0,0,1,0,.16,1.55,1.55,0,0,1-.22.33.32.32,0,0,0-.11.31c.06.09,0,.12,0,.24a2.53,2.53,0,0,0,0,.37.62.62,0,0,1-.1.37.22.22,0,0,0,0,.23.33.33,0,0,1-.14.07c.16.38.6.33.78.31a3,3,0,0,1,.39,0,2.45,2.45,0,0,0,.54.05c.37-.07.26-.42.24-.54s-.24-.28-.24-.28a1.1,1.1,0,0,0,.35.08l0-.09-.15,0a2.65,2.65,0,0,0-.35,0,2.18,2.18,0,0,1,.56,0l0-.29c.46,0,.37-.26.31-.41a3,3,0,0,1-.16-.45c0-.13-.07-.24-.07-.26a.46.46,0,0,0,0-.19,4.85,4.85,0,0,1,0-.8.58.58,0,0,1-.24-.08.38.38,0,0,1-.29,0" transform="translate(-1.1 -0.85)"/><path class="cls-1" d="M34.72,52.84a14.95,14.95,0,0,1-18,0,14.67,14.67,0,0,1-9,3A14.89,14.89,0,0,1,3,55.07H3a24.41,24.41,0,0,0,1.72,3.32,14.79,14.79,0,0,0,3,.31,14.66,14.66,0,0,0,9-3,14.95,14.95,0,0,0,18,0,14.67,14.67,0,0,0,9,3,14.82,14.82,0,0,0,3-.31,24.4,24.4,0,0,0,1.71-3.32,15,15,0,0,1-4.75.77,14.68,14.68,0,0,1-9-3" transform="translate(-1.1 -0.85)"/><path class="cls-1" d="M15.53,24a1.89,1.89,0,0,1,0-.22,1.45,1.45,0,0,1,.16-.41c-.25.84.14,1.13.08,1.09a.64.64,0,0,1,.08-.58s-.06.27,0,.34a.85.85,0,0,1,.16-.43.93.93,0,0,0,.2-.41,1.22,1.22,0,0,1,.13-.38,1.09,1.09,0,0,0-.07.35.64.64,0,0,1,0,.27c-.09.24-.24.69.11.94,0,0-.19-.38,0-.62,0,0,0,.38.17.46a.92.92,0,0,1,0-.53,1,1,0,0,0,.08-.42.83.83,0,0,1,0,.43.41.41,0,0,0,.06.43.28.28,0,0,1,.05-.3.7.7,0,0,0,.16-.56c-.06-.25-.23-.36.07-.76a1.42,1.42,0,0,0,0,.46.43.43,0,0,1,0-.2c.06-.24.13-.17.06-.43s.13-.32.13-.32a.24.24,0,0,0,0,.12.51.51,0,0,0,0,.14.88.88,0,0,1,0,.17,1,1,0,0,0,0-.42.74.74,0,0,1,.08-.35.94.94,0,0,0,0,.25c0,.12,0,.22,0,.32s.09,0,.1-.26.08-.28.06-.45c.11.13,0,.45,0,.45.16-.2.08-.29.06-.46s.15-.26.15-.26,0,.24,0,.25.22-.1.22-.1.28-.06.28-.3c0,0,.12.27.29,0a.2.2,0,0,0,.07.14c.23.08.13-.34.13-.34a.38.38,0,0,1,.1.1c.12.17.05-.13.05-.13-.16-.3-.81-.44-1.11-.47a6.11,6.11,0,0,0-1,0A1.41,1.41,0,0,0,16,21a2.72,2.72,0,0,0-.62,1.45c-.2.88-.42,1.57-.42,1.69,0,.59.56.27.61-.16" transform="translate(-1.1 -0.85)"/><path class="cls-1" d="M20.45,34.18c-.66-.32-1.21-.51-1.21-.51-1,.25-.38.65-.24.71a13.06,13.06,0,0,1,1.85,1c.74.47,1.77,1.15,1.8.46a5.25,5.25,0,0,0-2.21-1.65" transform="translate(-1.1 -0.85)"/><path class="cls-1" d="M13.77,11.59a4.22,4.22,0,0,1-2.86-1.11A5,5,0,1,0,14.82,2.4a5,5,0,0,0-3.91,1.86,4.22,4.22,0,1,1,2.86,7.33" transform="translate(-1.1 -0.85)"/><path class="cls-1" d="M15.66,26.55l-.34-.15a1,1,0,0,1-.54-.42c-.08-.19.14-.45.24-.53s-.33.36.64,1.09m.83,3.65c.34.82.95.65.95.65-1.14.53-1.57,2.54-1.57,2.54.1-1.65.86-2.1.62-3.19m-1.34-4.56c0-.31.23-.39.37-.45a1,1,0,0,0-.51.27,3.29,3.29,0,0,0-.37.36,5.3,5.3,0,0,0-1,1.69,9.17,9.17,0,0,0-.44,2.56c0,.47-.15,2.14-.19,3.21,0,.7-.06,1.15-.06,1.48s-.07,9.9-.07,9.9l.18-2.21.52-5.34s.25-2,.3-3.32.15-3.72.2-4.07a4.68,4.68,0,0,1,.44-1.48l-.25,8s.06,1.73.08,2.36c0,0-.07,3.89-.07,4.06l.5,2.66a.61.61,0,0,0,.67-.12l-.3-.81L14.74,42a.44.44,0,0,0,.23-.12.92.92,0,0,0,.17-.35,57.31,57.31,0,0,1,1.08-6.23c.27-.81.37-2.9,2.39-4.14a1.24,1.24,0,0,0-.64-.3c-.4-.07-.3-.1-.3-.1.15-.25-.27-.84-.27-.84a7.22,7.22,0,0,0-1.14-1.36c-.5-.58,0-.76,0-.76a2,2,0,0,0,.44.85c.2.28.74,1.27.74,1.27a3.56,3.56,0,0,0-.79-2.59,9.25,9.25,0,0,0-.68-.72l-.24-.23c-.11-.1-.34-.33-.36-.36s0-.05,0-.08a1.27,1.27,0,0,0,.4.25c.79.34,1.57.5,2,.16a.54.54,0,0,0,.1-.5.48.48,0,0,1-.06-.5c0-.1.07-.21-.2-.23a.82.82,0,0,1-.6-.31,1,1,0,0,1-.06-.25.38.38,0,0,1-.18,0s-.12.15-.22.1a.48.48,0,0,1-.44,0l-.33.1a1.16,1.16,0,0,1-.14.47l-.37.45" transform="translate(-1.1 -0.85)"/><path class="cls-1" d="M25.75,67.28a14.66,14.66,0,0,1-9-3,14.2,14.2,0,0,1-4,2.15h0a25.6,25.6,0,0,0,2.83,1.51c.39-.24.78-.51,1.13-.79a14.67,14.67,0,0,0,9,2.95,14.68,14.68,0,0,0,9-2.95,13.51,13.51,0,0,0,1.13.79,25.5,25.5,0,0,0,2.83-1.51,14.12,14.12,0,0,1-4-2.15,14.68,14.68,0,0,1-9,3" transform="translate(-1.1 -0.85)"/><path class="cls-1" d="M33,22a1.71,1.71,0,0,1-.67,0,1,1,0,0,1-.58-.32c0-.09,0-.11.05-.1s.1.11.14.18a.74.74,0,0,0,.39.24.36.36,0,0,0-.1-.24.64.64,0,0,0,.24.16c.73.16.34-.17.34-.17.53.24.37.52.51.83a3.05,3.05,0,0,1-.13-.35C33.07,22,33,22,33,22m-1,.63a.31.31,0,0,1-.18-.05,1.2,1.2,0,0,1,.63-.22.52.52,0,0,1,.42.23,1.06,1.06,0,0,0-.87,0m.54,0c-.08.08,0,.21-.21.23s-.22-.24-.22-.24a.93.93,0,0,1,.37-.09c.15,0,.2.06.2.06a.16.16,0,0,0-.14,0M34,24.12c-.06-.15-.07-.5-.13-.72a1.85,1.85,0,0,0-.28-.47,1.51,1.51,0,0,0,.37.3.91.91,0,0,1,.4.54.21.21,0,0,0-.21-.09c-.11,0-.17.24-.14.45.22.26.28-.09.28-.09a.19.19,0,0,1,0,.21s.14.15.31,0,.12-.6-.38-1-.49-.64-.49-.64a1,1,0,0,0,.43.33.81.81,0,0,1,.5.45s0-.11-.3-.15c0,0,.59.62.41,1a.46.46,0,0,0,.09-.56s.19.16.19.31c0,0,.19-.26-.23-.7a1,1,0,0,1-.25-.43,1.21,1.21,0,0,0-.25-.28,1.26,1.26,0,0,1-.23-.5.46.46,0,0,0,.21.21.92.92,0,0,0-.08-.57.93.93,0,0,1,.19.32,1.41,1.41,0,0,0,.21.43.61.61,0,0,1,.12.49c0,.26.2.33.25.38a.72.72,0,0,1,.29.6s.15-.22-.09-.61-.14-.49-.12-.53a.49.49,0,0,0,.26.35s.05-.14-.29-.55a1.9,1.9,0,0,1-.57-1.28s0,.18.29.34a4,4,0,0,1-.14-.39c0-.15-.11-.71-1-.88a4.56,4.56,0,0,0-1.63.34,1.12,1.12,0,0,0-.51.92,2,2,0,0,0,.25.51s0,.09,0,.14a1.26,1.26,0,0,1,0,.13c0,.05-.07.18,0,.22a.17.17,0,0,1,0,.13c0,.15-.16.72-.16.82s0,.24.21.22l.16,0A1.75,1.75,0,0,1,32,24a.29.29,0,0,1,.23-.06l.35,0-.31.07a.53.53,0,0,1-.18,0l0,.12a.92.92,0,0,0,.4-.12.42.42,0,0,1-.17.17c-.12,0-.18,0-.23-.06a.21.21,0,0,1,.13.19c0,.15-.07.38.17.4l.4,0a1.29,1.29,0,0,0,.32,0c.13,0,.78-.32.89-.65" transform="translate(-1.1 -0.85)"/><path class="cls-1" d="M45.95,49.1H41.46V46.36H37V49.1H32.48V46.36H28V49.1H23.5V46.36H19V49.1H14.52V46.36H10V49.1H5.55V46.36H1.11a24.57,24.57,0,0,0,.8,5.43A14.94,14.94,0,0,0,7.79,53a14.67,14.67,0,0,0,9-3,14.68,14.68,0,0,0,9,3h0a14.68,14.68,0,0,0,9-3,14.67,14.67,0,0,0,9,3,14.93,14.93,0,0,0,5.87-1.19,24.57,24.57,0,0,0,.81-5.43H45.95Z" transform="translate(-1.1 -0.85)"/><path class="cls-1" d="M16.35,26.51c-.27-.05-.19.13-.1.22a4.59,4.59,0,0,1,1.4,2.58s.62.23.73-.67a5,5,0,0,0-.22-1.71s.07.13.27.64a6.56,6.56,0,0,1,.29,1.64,2,2,0,0,0,.09-.48c0-.16,0-.34,0-.49a3.11,3.11,0,0,0-.08-1.1,2,2,0,0,0-.2-.4l-.69-.88a.75.75,0,0,1-.23.43,1.36,1.36,0,0,1-1.29.23" transform="translate(-1.1 -0.85)"/><path class="cls-1" d="M33.11,26.31a3.86,3.86,0,0,0,.82.14,1.79,1.79,0,0,0,.77-.21,2,2,0,0,0,.44-.43,1.7,1.7,0,0,0,.16-.24.68.68,0,0,0,0-.08c0-.12,0-.34-.29-.59a1.52,1.52,0,0,1-.29-.45h0a.3.3,0,0,1-.26-.06.24.24,0,0,1-.26-.06c-.06,0-.2,0-.26-.2.07.27-.49.54-.69.8s-.29-.05-.39.07.07.22.07.31a3.66,3.66,0,0,1,0,.37c0,.18-.1.57.18.64" transform="translate(-1.1 -0.85)"/><path class="cls-1" d="M37,45c0-.19-.12-.17-.32-.09s-.42-.07-.58-.1-.18,0-.32,0a.88.88,0,0,1-.34,0c-.41-.05-.37.4-.37.4a.52.52,0,0,0,.07.14,1.15,1.15,0,0,0,.25.12c.05,0,0,.06.08.11s.52.38.81.05c.07-.15-.32-.39-.28-.37a1.09,1.09,0,0,1,.31.24c.12.14.31.24.43.11s-.3-.44-.3-.44a1.05,1.05,0,0,1,.31.24c.13.15.23.2.28,0a.94.94,0,0,0-.27-.32.92.92,0,0,1,.19.14c.12.11.22.08.19-.12A.65.65,0,0,0,37,45" transform="translate(-1.1 -0.85)"/><path class="cls-1" d="M81.67,45.44l-1.59-5H73.34l-1.65,5h-4L75,25.31H78.4l7.29,20.13Zm-5-15.53-2.32,7.29H79Z" transform="translate(-1.1 -0.85)"/><path class="cls-1" d="M100.56,45.44l-1.59-5H92.23l-1.65,5h-4l7.29-20.13H97.3l7.29,20.13Zm-5-15.53-2.32,7.29h4.67Z" transform="translate(-1.1 -0.85)"/><path class="cls-1" d="M117.12,45.44l-4.61-8.05H110.6v8.05h-3.84V25.31h6.71c2.93,0,4.27.37,5.46,1.5a5.63,5.63,0,0,1,1.65,4.36,6.12,6.12,0,0,1-1.1,3.78,5,5,0,0,1-3.14,1.86l5,8.63Zm-4-16.87h-2.5v5.55h2.5c2.44,0,3.51-.85,3.51-2.87S115.6,28.58,113.1,28.58Z" transform="translate(-1.1 -0.85)"/><path class="cls-1" d="M138.29,45.44V36.81H128v8.63h-3.84V25.31H128v8.05h10.34V25.31h3.84V45.44Z" transform="translate(-1.1 -0.85)"/><path class="cls-1" d="M160.67,44.38a11.78,11.78,0,0,1-11.38,0c-2.07-1.43-2.75-3.11-2.75-6.8V25.31h3.81V37.79c0,3,1.55,4.48,4.76,4.48,2.93,0,4.48-1.59,4.48-4.48V25.31h3.84V37.57C163.44,41.27,162.77,42.91,160.67,44.38Z" transform="translate(-1.1 -0.85)"/><path class="cls-1" d="M179.13,30.1a13.77,13.77,0,0,0-5.22-1.43c-1.8,0-3,.73-3,1.86,0,.85.49,1.37,1.92,2.14a29,29,0,0,1,6,3.87,5.15,5.15,0,0,1,1.37,3.6c0,3.6-2.62,5.7-7.08,5.7a11.59,11.59,0,0,1-1.8-.12,12,12,0,0,1-4.21-1.4l-1.31-.61,1.62-3.54a22.67,22.67,0,0,0,2.87,1.4,9.19,9.19,0,0,0,2.9.58c1.77,0,2.93-.79,2.93-2,0-.85-.46-1.43-1.77-2.16l-3.11-1.77c-3.57-2-4.67-3.39-4.67-5.58a5.38,5.38,0,0,1,.79-2.81,5.8,5.8,0,0,1,1.5-1.5A7.79,7.79,0,0,1,174,25a13,13,0,0,1,3.78.52,18.14,18.14,0,0,1,2.87,1.16Z" transform="translate(-1.1 -0.85)"/><path class="cls-1" d="M202.28,45.44l-6.71-9.58v9.58h-3.84V25.31h3.84v9.39l6.31-9.39h4.42l-6.92,9.79,7.29,10.34Z" transform="translate(-1.1 -0.85)"/><path class="cls-1" d="M217.18,45.84c-6.28,0-10.7-4.33-10.7-10.46s4.33-10.43,10.7-10.43,10.68,4.21,10.68,10.43S223.44,45.84,217.18,45.84Zm0-17.57c-3.81,0-6.62,3-6.62,7.11s2.81,7.11,6.62,7.11,6.59-3,6.59-7.11S221,28.27,217.18,28.27Z" transform="translate(-1.1 -0.85)"/><path class="cls-1" d="M248.43,45.44V30.68a9.27,9.27,0,0,1-.76,2.87l-4.61,11.9h-3.45L235.4,33.76a14.59,14.59,0,0,1-.76-3.2V45.44h-3.48V25.31h4.61l5.37,14.37a5.29,5.29,0,0,1,.4,1.56,5,5,0,0,1,.37-1.56l5.58-14.37h4.61V45.44Z" transform="translate(-1.1 -0.85)"/><path class="cls-1" d="M274.25,45.44V30.68a9.32,9.32,0,0,1-.76,2.87l-4.61,11.9h-3.45l-4.21-11.68a14.48,14.48,0,0,1-.76-3.2V45.44H257V25.31h4.61L267,39.68a5.29,5.29,0,0,1,.4,1.56,5,5,0,0,1,.37-1.56l5.58-14.37h4.61V45.44Z" transform="translate(-1.1 -0.85)"/><path class="cls-1" d="M296.54,44.38a11.78,11.78,0,0,1-11.38,0c-2.07-1.43-2.74-3.11-2.74-6.8V25.31h3.81V37.79c0,3,1.55,4.48,4.76,4.48,2.93,0,4.48-1.59,4.48-4.48V25.31h3.84V37.57C299.32,41.27,298.65,42.91,296.54,44.38Z" transform="translate(-1.1 -0.85)"/><path class="cls-1" d="M317.06,45.63l-8.63-13c-.06-.09-.18-.37-.43-.79a2.67,2.67,0,0,0-.24-.43,3.12,3.12,0,0,1-.28-.7V45.44h-3.66V25.31h4.42l8.45,13.24c0,.06.12.21.21.43s.15.34.18.4l.18.52.18.37V25.31h3.63V45.63Z" transform="translate(-1.1 -0.85)"/><path class="cls-1" d="M325.89,45.44V25.31h12.26v3.26h-8.42v5h6.89v3.26h-6.89v5.37h8.81v3.26Z" transform="translate(-1.1 -0.85)"/></svg>